<mxfile host="app.diagrams.net" modified="2020-07-01T14:24:43.306Z" agent="5.0 (Windows)" etag="5z3NwRorAaMjYMqWpl8l" version="13.3.5" type="github">
  <diagram id="9RONjwcvx1r0rOUadG8E" name="Page-1">
    <mxGraphModel dx="1185" dy="668" grid="1" gridSize="10" guides="1" tooltips="1" connect="1" arrows="1" fold="1" page="1" pageScale="1" pageWidth="850" pageHeight="1100" math="0" shadow="0">
      <root>
        <mxCell id="0" />
        <mxCell id="1" parent="0" />
        <mxCell id="sRlAr93dhdMhrqp7foEI-1" value="User" style="shape=umlActor;verticalLabelPosition=bottom;labelBackgroundColor=#ffffff;verticalAlign=top;html=1;" vertex="1" parent="1">
          <mxGeometry x="80" y="60" width="30" height="60" as="geometry" />
        </mxCell>
        <mxCell id="sRlAr93dhdMhrqp7foEI-4" value="Edit Playlist Button" style="html=1;" vertex="1" parent="1">
          <mxGeometry x="200" y="60" width="110" height="50" as="geometry" />
        </mxCell>
        <mxCell id="sRlAr93dhdMhrqp7foEI-7" value="Edit Playlist Window" style="html=1;" vertex="1" parent="1">
          <mxGeometry x="360" y="60" width="120" height="50" as="geometry" />
        </mxCell>
        <mxCell id="sRlAr93dhdMhrqp7foEI-8" value="GUI" style="shape=umlActor;verticalLabelPosition=bottom;labelBackgroundColor=#ffffff;verticalAlign=top;html=1;" vertex="1" parent="1">
          <mxGeometry x="590" y="60" width="30" height="60" as="geometry" />
        </mxCell>
        <mxCell id="sRlAr93dhdMhrqp7foEI-14" value="" style="html=1;points=[];perimeter=orthogonalPerimeter;" vertex="1" parent="1">
          <mxGeometry x="90" y="150" width="10" height="370" as="geometry" />
        </mxCell>
        <mxCell id="sRlAr93dhdMhrqp7foEI-15" value="" style="html=1;points=[];perimeter=orthogonalPerimeter;" vertex="1" parent="1">
          <mxGeometry x="600" y="150" width="10" height="370" as="geometry" />
        </mxCell>
        <mxCell id="sRlAr93dhdMhrqp7foEI-16" value="" style="endArrow=classic;html=1;" edge="1" parent="1">
          <mxGeometry width="50" height="50" relative="1" as="geometry">
            <mxPoint x="102" y="161" as="sourcePoint" />
            <mxPoint x="250" y="161" as="targetPoint" />
          </mxGeometry>
        </mxCell>
        <mxCell id="sRlAr93dhdMhrqp7foEI-30" value="Push Button" style="edgeLabel;html=1;align=center;verticalAlign=middle;resizable=0;points=[];" vertex="1" connectable="0" parent="sRlAr93dhdMhrqp7foEI-16">
          <mxGeometry x="0.2425" relative="1" as="geometry">
            <mxPoint as="offset" />
          </mxGeometry>
        </mxCell>
        <mxCell id="sRlAr93dhdMhrqp7foEI-17" value="" style="html=1;points=[];perimeter=orthogonalPerimeter;" vertex="1" parent="1">
          <mxGeometry x="250" y="150" width="10" height="80" as="geometry" />
        </mxCell>
        <mxCell id="sRlAr93dhdMhrqp7foEI-18" value="" style="endArrow=none;dashed=1;html=1;entryX=0.5;entryY=1;entryDx=0;entryDy=0;" edge="1" parent="1" target="sRlAr93dhdMhrqp7foEI-4">
          <mxGeometry width="50" height="50" relative="1" as="geometry">
            <mxPoint x="255" y="150" as="sourcePoint" />
            <mxPoint x="400" y="160" as="targetPoint" />
          </mxGeometry>
        </mxCell>
        <mxCell id="sRlAr93dhdMhrqp7foEI-19" value="" style="html=1;points=[];perimeter=orthogonalPerimeter;" vertex="1" parent="1">
          <mxGeometry x="415" y="260" width="10" height="260" as="geometry" />
        </mxCell>
        <mxCell id="sRlAr93dhdMhrqp7foEI-20" value="" style="endArrow=classic;html=1;exitX=1.245;exitY=1.009;exitDx=0;exitDy=0;exitPerimeter=0;" edge="1" parent="1" source="sRlAr93dhdMhrqp7foEI-17">
          <mxGeometry width="50" height="50" relative="1" as="geometry">
            <mxPoint x="310" y="260" as="sourcePoint" />
            <mxPoint x="599" y="231" as="targetPoint" />
          </mxGeometry>
        </mxCell>
        <mxCell id="sRlAr93dhdMhrqp7foEI-24" value="Fetch Edit Playlist Window" style="edgeLabel;html=1;align=center;verticalAlign=middle;resizable=0;points=[];" vertex="1" connectable="0" parent="sRlAr93dhdMhrqp7foEI-20">
          <mxGeometry x="-0.1435" relative="1" as="geometry">
            <mxPoint as="offset" />
          </mxGeometry>
        </mxCell>
        <mxCell id="sRlAr93dhdMhrqp7foEI-22" value="" style="endArrow=none;dashed=1;html=1;entryX=0.5;entryY=1;entryDx=0;entryDy=0;" edge="1" parent="1" source="sRlAr93dhdMhrqp7foEI-19" target="sRlAr93dhdMhrqp7foEI-7">
          <mxGeometry width="50" height="50" relative="1" as="geometry">
            <mxPoint x="430" y="200" as="sourcePoint" />
            <mxPoint x="480" y="150" as="targetPoint" />
          </mxGeometry>
        </mxCell>
        <mxCell id="sRlAr93dhdMhrqp7foEI-26" value="Return Edit Options" style="html=1;verticalAlign=bottom;endArrow=open;dashed=1;endSize=8;entryX=0.914;entryY=-0.004;entryDx=0;entryDy=0;entryPerimeter=0;" edge="1" parent="1" target="sRlAr93dhdMhrqp7foEI-19">
          <mxGeometry relative="1" as="geometry">
            <mxPoint x="600" y="260" as="sourcePoint" />
            <mxPoint x="520" y="260" as="targetPoint" />
          </mxGeometry>
        </mxCell>
        <mxCell id="sRlAr93dhdMhrqp7foEI-27" value="Alt" style="shape=umlFrame;whiteSpace=wrap;html=1;width=30;height=30;" vertex="1" parent="1">
          <mxGeometry x="60" y="280" width="560" height="90" as="geometry" />
        </mxCell>
        <mxCell id="sRlAr93dhdMhrqp7foEI-33" value="" style="endArrow=classic;html=1;entryX=-0.114;entryY=0.138;entryDx=0;entryDy=0;entryPerimeter=0;" edge="1" parent="1" source="sRlAr93dhdMhrqp7foEI-14" target="sRlAr93dhdMhrqp7foEI-19">
          <mxGeometry width="50" height="50" relative="1" as="geometry">
            <mxPoint x="104" y="260" as="sourcePoint" />
            <mxPoint x="190" y="320" as="targetPoint" />
          </mxGeometry>
        </mxCell>
        <mxCell id="sRlAr93dhdMhrqp7foEI-34" value="User Clicks One of Edit Options" style="edgeLabel;html=1;align=center;verticalAlign=middle;resizable=0;points=[];" vertex="1" connectable="0" parent="sRlAr93dhdMhrqp7foEI-33">
          <mxGeometry x="-0.2526" relative="1" as="geometry">
            <mxPoint x="22.86" as="offset" />
          </mxGeometry>
        </mxCell>
        <mxCell id="sRlAr93dhdMhrqp7foEI-36" value="" style="endArrow=none;html=1;entryX=-0.114;entryY=0.138;entryDx=0;entryDy=0;entryPerimeter=0;dashed=1;startArrow=classic;startFill=1;endFill=0;" edge="1" parent="1">
          <mxGeometry width="50" height="50" relative="1" as="geometry">
            <mxPoint x="101.14" y="330" as="sourcePoint" />
            <mxPoint x="415.0000000000001" y="330" as="targetPoint" />
          </mxGeometry>
        </mxCell>
        <mxCell id="sRlAr93dhdMhrqp7foEI-37" value="Returns Result Based On Edit Option" style="edgeLabel;html=1;align=center;verticalAlign=middle;resizable=0;points=[];" vertex="1" connectable="0" parent="sRlAr93dhdMhrqp7foEI-36">
          <mxGeometry x="-0.2526" relative="1" as="geometry">
            <mxPoint x="21.72" as="offset" />
          </mxGeometry>
        </mxCell>
      </root>
    </mxGraphModel>
  </diagram>
</mxfile>
